<svg xmlns="http://www.w3.org/2000/svg" xmlns:xlink="http://www.w3.org/1999/xlink" width="960" zoomAndPan="magnify" viewBox="0 0 720 809.999993" height="1080" preserveAspectRatio="xMidYMid meet" version="1.0"><defs><g/></defs><g fill="#000000" fill-opacity="1"><g transform="translate(157.70708, 467.385289)"><g><path d="M 24.84375 1.40625 C 11.195312 1.40625 2.128906 -1.976562 -2.359375 -8.75 C -6.859375 -15.519531 -7.359375 -26.425781 -3.859375 -41.46875 L -0.53125 -56.171875 L 29.046875 -56.171875 L 24.671875 -37.453125 C 22.921875 -29.984375 24.4375 -26.25 29.21875 -26.25 C 31.90625 -26.25 33.976562 -27.035156 35.4375 -28.609375 C 36.894531 -30.179688 38.03125 -32.835938 38.84375 -36.578125 C 40.007812 -41.472656 40.359375 -45.523438 39.890625 -48.734375 C 39.429688 -51.941406 38.554688 -54.625 37.265625 -56.78125 C 35.984375 -58.945312 33.535156 -62.300781 29.921875 -66.84375 L 19.953125 -79.796875 C 12.242188 -89.597656 9.734375 -100.445312 12.421875 -112.34375 C 15.335938 -125.175781 20.53125 -134.945312 28 -141.65625 C 35.46875 -148.363281 44.859375 -151.71875 56.171875 -151.71875 C 69.703125 -151.71875 78.625 -148.128906 82.9375 -140.953125 C 87.257812 -133.785156 87.613281 -122.5625 84 -107.28125 L 53.375 -107.28125 L 55.640625 -117.59375 C 56.109375 -119.582031 55.929688 -121.160156 55.109375 -122.328125 C 54.296875 -123.492188 52.898438 -124.078125 50.921875 -124.078125 C 48.585938 -124.078125 46.660156 -123.429688 45.140625 -122.140625 C 43.628906 -120.859375 42.640625 -119.113281 42.171875 -116.90625 C 41.003906 -112 42.640625 -106.921875 47.078125 -101.671875 L 60.71875 -84.875 C 63.875 -80.90625 66.382812 -77.140625 68.25 -73.578125 C 70.113281 -70.023438 71.304688 -65.828125 71.828125 -60.984375 C 72.359375 -56.140625 71.863281 -50.394531 70.34375 -43.75 C 66.84375 -28.9375 61.503906 -17.707031 54.328125 -10.0625 C 47.160156 -2.414062 37.332031 1.40625 24.84375 1.40625 Z M 24.84375 1.40625 "/></g></g></g><g fill="#000000" fill-opacity="1"><g transform="translate(238.380267, 467.385289)"><g><path d="M 24.84375 1.40625 C 11.195312 1.40625 2.128906 -1.976562 -2.359375 -8.75 C -6.859375 -15.519531 -7.359375 -26.425781 -3.859375 -41.46875 L -0.53125 -56.171875 L 29.046875 -56.171875 L 24.671875 -37.453125 C 22.921875 -29.984375 24.4375 -26.25 29.21875 -26.25 C 31.90625 -26.25 33.976562 -27.035156 35.4375 -28.609375 C 36.894531 -30.179688 38.03125 -32.835938 38.84375 -36.578125 C 40.007812 -41.472656 40.359375 -45.523438 39.890625 -48.734375 C 39.429688 -51.941406 38.554688 -54.625 37.265625 -56.78125 C 35.984375 -58.945312 33.535156 -62.300781 29.921875 -66.84375 L 19.953125 -79.796875 C 12.242188 -89.597656 9.734375 -100.445312 12.421875 -112.34375 C 15.335938 -125.175781 20.53125 -134.945312 28 -141.65625 C 35.46875 -148.363281 44.859375 -151.71875 56.171875 -151.71875 C 69.703125 -151.71875 78.625 -148.128906 82.9375 -140.953125 C 87.257812 -133.785156 87.613281 -122.5625 84 -107.28125 L 53.375 -107.28125 L 55.640625 -117.59375 C 56.109375 -119.582031 55.929688 -121.160156 55.109375 -122.328125 C 54.296875 -123.492188 52.898438 -124.078125 50.921875 -124.078125 C 48.585938 -124.078125 46.660156 -123.429688 45.140625 -122.140625 C 43.628906 -120.859375 42.640625 -119.113281 42.171875 -116.90625 C 41.003906 -112 42.640625 -106.921875 47.078125 -101.671875 L 60.71875 -84.875 C 63.875 -80.90625 66.382812 -77.140625 68.25 -73.578125 C 70.113281 -70.023438 71.304688 -65.828125 71.828125 -60.984375 C 72.359375 -56.140625 71.863281 -50.394531 70.34375 -43.75 C 66.84375 -28.9375 61.503906 -17.707031 54.328125 -10.0625 C 47.160156 -2.414062 37.332031 1.40625 24.84375 1.40625 Z M 24.84375 1.40625 "/></g></g></g><g fill="#38b6ff" fill-opacity="1"><g transform="translate(319.050826, 467.385289)"><g><path d="M 24.140625 -150.328125 L 65.625 -150.328125 C 76.351562 -150.328125 83.726562 -147.347656 87.75 -141.390625 C 91.78125 -135.441406 92.515625 -126.632812 89.953125 -114.96875 L 74.015625 -44.625 C 70.640625 -29.8125 65.476562 -18.671875 58.53125 -11.203125 C 51.59375 -3.734375 42.054688 0 29.921875 0 L -10.5 0 Z M 31.140625 -26.59375 C 36.628906 -26.59375 40.015625 -29.28125 41.296875 -34.65625 L 59.140625 -112.171875 C 59.960938 -115.554688 60.285156 -118.09375 60.109375 -119.78125 C 59.929688 -121.476562 59.226562 -122.617188 58 -123.203125 C 56.78125 -123.785156 54.710938 -124.078125 51.796875 -124.078125 L 48.46875 -124.078125 L 25.890625 -26.59375 Z M 31.140625 -26.59375 "/></g></g></g><g fill="#000000" fill-opacity="1"><g transform="translate(405.312537, 467.385289)"><g><path d="M -14.53125 0 L 34.640625 -150.328125 L 85.578125 -150.328125 L 65.265625 0 L 36.75 0 L 40.25 -24.328125 L 22.046875 -24.328125 L 14.703125 0 Z M 29.921875 -48.296875 L 43.578125 -48.296875 L 54.421875 -124.78125 L 53.015625 -124.78125 Z M 29.921875 -48.296875 "/></g></g></g><g fill="#000000" fill-opacity="1"><g transform="translate(490.185625, 467.385289)"><g><path d="M -10.5 0 L 24.140625 -150.328125 L 84.34375 -150.328125 L 77.703125 -121.28125 L 48.125 -121.28125 L 41.296875 -92.046875 L 69.640625 -92.046875 L 63.171875 -63.703125 L 34.828125 -63.703125 L 26.765625 -29.21875 L 58.265625 -29.21875 L 51.625 0 Z M -10.5 0 "/></g></g></g></svg>