<svg xmlns="http://www.w3.org/2000/svg" xmlns:xlink="http://www.w3.org/1999/xlink" width="960" zoomAndPan="magnify" viewBox="0 0 720 809.999993" height="1080" preserveAspectRatio="xMidYMid meet" version="1.0"><defs><g/></defs><rect x="-72" width="864" fill="#ffffff" y="-80.999999" height="971.999992" fill-opacity="1"/><rect x="-72" width="864" fill="#ffffff" y="-80.999999" height="971.999992" fill-opacity="1"/><rect x="-72" width="864" fill="#ffffff" y="-80.999999" height="971.999992" fill-opacity="1"/><g fill="#ffffff" fill-opacity="1"><g transform="translate(282.228973, 408.132382)"><g><path d="M 5.28125 0.296875 C 2.375 0.296875 0.445312 -0.421875 -0.5 -1.859375 C -1.457031 -3.296875 -1.566406 -5.617188 -0.828125 -8.828125 L -0.125 -11.953125 L 6.171875 -11.953125 L 5.25 -7.96875 C 4.875 -6.382812 5.195312 -5.59375 6.21875 -5.59375 C 6.789062 -5.59375 7.226562 -5.757812 7.53125 -6.09375 C 7.84375 -6.425781 8.085938 -6.988281 8.265625 -7.78125 C 8.515625 -8.820312 8.585938 -9.6875 8.484375 -10.375 C 8.390625 -11.0625 8.203125 -11.632812 7.921875 -12.09375 C 7.648438 -12.550781 7.128906 -13.265625 6.359375 -14.234375 L 4.234375 -16.984375 C 2.597656 -19.066406 2.066406 -21.378906 2.640625 -23.921875 C 3.253906 -26.648438 4.359375 -28.726562 5.953125 -30.15625 C 7.546875 -31.582031 9.546875 -32.296875 11.953125 -32.296875 C 14.828125 -32.296875 16.722656 -31.53125 17.640625 -30 C 18.566406 -28.476562 18.644531 -26.085938 17.875 -22.828125 L 11.359375 -22.828125 L 11.84375 -25.03125 C 11.9375 -25.457031 11.894531 -25.789062 11.71875 -26.03125 C 11.550781 -26.28125 11.253906 -26.40625 10.828125 -26.40625 C 10.335938 -26.40625 9.929688 -26.269531 9.609375 -26 C 9.285156 -25.726562 9.070312 -25.359375 8.96875 -24.890625 C 8.71875 -23.835938 9.066406 -22.753906 10.015625 -21.640625 L 12.921875 -18.0625 C 13.585938 -17.21875 14.117188 -16.414062 14.515625 -15.65625 C 14.921875 -14.90625 15.175781 -14.015625 15.28125 -12.984375 C 15.394531 -11.953125 15.289062 -10.726562 14.96875 -9.3125 C 14.21875 -6.15625 13.078125 -3.765625 11.546875 -2.140625 C 10.023438 -0.515625 7.9375 0.296875 5.28125 0.296875 Z M 5.28125 0.296875 "/></g></g></g><g fill="#ffffff" fill-opacity="1"><g transform="translate(299.400432, 408.132382)"><g><path d="M 5.28125 0.296875 C 2.375 0.296875 0.445312 -0.421875 -0.5 -1.859375 C -1.457031 -3.296875 -1.566406 -5.617188 -0.828125 -8.828125 L -0.125 -11.953125 L 6.171875 -11.953125 L 5.25 -7.96875 C 4.875 -6.382812 5.195312 -5.59375 6.21875 -5.59375 C 6.789062 -5.59375 7.226562 -5.757812 7.53125 -6.09375 C 7.84375 -6.425781 8.085938 -6.988281 8.265625 -7.78125 C 8.515625 -8.820312 8.585938 -9.6875 8.484375 -10.375 C 8.390625 -11.0625 8.203125 -11.632812 7.921875 -12.09375 C 7.648438 -12.550781 7.128906 -13.265625 6.359375 -14.234375 L 4.234375 -16.984375 C 2.597656 -19.066406 2.066406 -21.378906 2.640625 -23.921875 C 3.253906 -26.648438 4.359375 -28.726562 5.953125 -30.15625 C 7.546875 -31.582031 9.546875 -32.296875 11.953125 -32.296875 C 14.828125 -32.296875 16.722656 -31.53125 17.640625 -30 C 18.566406 -28.476562 18.644531 -26.085938 17.875 -22.828125 L 11.359375 -22.828125 L 11.84375 -25.03125 C 11.9375 -25.457031 11.894531 -25.789062 11.71875 -26.03125 C 11.550781 -26.28125 11.253906 -26.40625 10.828125 -26.40625 C 10.335938 -26.40625 9.929688 -26.269531 9.609375 -26 C 9.285156 -25.726562 9.070312 -25.359375 8.96875 -24.890625 C 8.71875 -23.835938 9.066406 -22.753906 10.015625 -21.640625 L 12.921875 -18.0625 C 13.585938 -17.21875 14.117188 -16.414062 14.515625 -15.65625 C 14.921875 -14.90625 15.175781 -14.015625 15.28125 -12.984375 C 15.394531 -11.953125 15.289062 -10.726562 14.96875 -9.3125 C 14.21875 -6.15625 13.078125 -3.765625 11.546875 -2.140625 C 10.023438 -0.515625 7.9375 0.296875 5.28125 0.296875 Z M 5.28125 0.296875 "/></g></g></g><g fill="#ffffff" fill-opacity="1"><g transform="translate(316.571892, 408.132382)"><g><path d="M 5.140625 -32 L 13.96875 -32 C 16.25 -32 17.816406 -31.363281 18.671875 -30.09375 C 19.523438 -28.832031 19.679688 -26.957031 19.140625 -24.46875 L 15.75 -9.5 C 15.03125 -6.34375 13.929688 -3.96875 12.453125 -2.375 C 10.972656 -0.789062 8.941406 0 6.359375 0 L -2.234375 0 Z M 6.625 -5.65625 C 7.789062 -5.65625 8.507812 -6.226562 8.78125 -7.375 L 12.578125 -23.875 C 12.753906 -24.59375 12.820312 -25.128906 12.78125 -25.484375 C 12.75 -25.847656 12.601562 -26.09375 12.34375 -26.21875 C 12.082031 -26.34375 11.640625 -26.40625 11.015625 -26.40625 L 10.3125 -26.40625 L 5.5 -5.65625 Z M 6.625 -5.65625 "/></g></g></g><g fill="#ffffff" fill-opacity="1"><g transform="translate(334.935296, 408.132382)"><g><path d="M -3.09375 0 L 7.375 -32 L 18.203125 -32 L 13.890625 0 L 7.8125 0 L 8.5625 -5.171875 L 4.6875 -5.171875 L 3.125 0 Z M 6.359375 -10.28125 L 9.265625 -10.28125 L 11.578125 -26.5625 L 11.28125 -26.5625 Z M 6.359375 -10.28125 "/></g></g></g><g fill="#ffffff" fill-opacity="1"><g transform="translate(353.000719, 408.132382)"><g><path d="M -2.234375 0 L 5.140625 -32 L 17.953125 -32 L 16.53125 -25.8125 L 10.234375 -25.8125 L 8.78125 -19.59375 L 14.8125 -19.59375 L 13.4375 -13.5625 L 7.40625 -13.5625 L 5.6875 -6.21875 L 12.390625 -6.21875 L 10.984375 0 Z M -2.234375 0 "/></g></g></g></svg>