<svg xmlns="http://www.w3.org/2000/svg" xmlns:xlink="http://www.w3.org/1999/xlink" width="609" zoomAndPan="magnify" viewBox="0 0 456.75 215.999996" height="288" preserveAspectRatio="xMidYMid meet" version="1.0"><defs><g/></defs><g fill="#000000" fill-opacity="1"><g transform="translate(26.757953, 178.697256)"><g><path d="M 24.765625 1.390625 C 11.160156 1.390625 2.117188 -1.976562 -2.359375 -8.71875 C -6.835938 -15.46875 -7.332031 -26.34375 -3.84375 -41.34375 L -0.53125 -55.984375 L 28.953125 -55.984375 L 24.59375 -37.328125 C 22.84375 -29.878906 24.351562 -26.15625 29.125 -26.15625 C 31.800781 -26.15625 33.863281 -26.941406 35.3125 -28.515625 C 36.769531 -30.085938 37.90625 -32.734375 38.71875 -36.453125 C 39.882812 -41.335938 40.234375 -45.378906 39.765625 -48.578125 C 39.296875 -51.773438 38.421875 -54.445312 37.140625 -56.59375 C 35.867188 -58.75 33.429688 -62.09375 29.828125 -66.625 L 19.875 -79.53125 C 12.207031 -89.300781 9.707031 -100.117188 12.375 -111.984375 C 15.28125 -124.773438 20.453125 -134.507812 27.890625 -141.1875 C 35.335938 -147.875 44.703125 -151.21875 55.984375 -151.21875 C 69.472656 -151.21875 78.367188 -147.640625 82.671875 -140.484375 C 86.972656 -133.335938 87.320312 -122.148438 83.71875 -106.921875 L 53.203125 -106.921875 L 55.46875 -117.21875 C 55.925781 -119.1875 55.75 -120.753906 54.9375 -121.921875 C 54.125 -123.085938 52.726562 -123.671875 50.75 -123.671875 C 48.425781 -123.671875 46.507812 -123.03125 45 -121.75 C 43.488281 -120.46875 42.5 -118.722656 42.03125 -116.515625 C 40.863281 -111.628906 42.492188 -106.570312 46.921875 -101.34375 L 60.515625 -84.59375 C 63.660156 -80.644531 66.160156 -76.894531 68.015625 -73.34375 C 69.878906 -69.800781 71.070312 -65.613281 71.59375 -60.78125 C 72.113281 -55.957031 71.617188 -50.234375 70.109375 -43.609375 C 66.617188 -28.835938 61.296875 -17.644531 54.140625 -10.03125 C 46.992188 -2.414062 37.203125 1.390625 24.765625 1.390625 Z M 24.765625 1.390625 "/></g></g></g><g fill="#000000" fill-opacity="1"><g transform="translate(107.161598, 178.697256)"><g><path d="M 24.765625 1.390625 C 11.160156 1.390625 2.117188 -1.976562 -2.359375 -8.71875 C -6.835938 -15.46875 -7.332031 -26.34375 -3.84375 -41.34375 L -0.53125 -55.984375 L 28.953125 -55.984375 L 24.59375 -37.328125 C 22.84375 -29.878906 24.351562 -26.15625 29.125 -26.15625 C 31.800781 -26.15625 33.863281 -26.941406 35.3125 -28.515625 C 36.769531 -30.085938 37.90625 -32.734375 38.71875 -36.453125 C 39.882812 -41.335938 40.234375 -45.378906 39.765625 -48.578125 C 39.296875 -51.773438 38.421875 -54.445312 37.140625 -56.59375 C 35.867188 -58.75 33.429688 -62.09375 29.828125 -66.625 L 19.875 -79.53125 C 12.207031 -89.300781 9.707031 -100.117188 12.375 -111.984375 C 15.28125 -124.773438 20.453125 -134.507812 27.890625 -141.1875 C 35.335938 -147.875 44.703125 -151.21875 55.984375 -151.21875 C 69.472656 -151.21875 78.367188 -147.640625 82.671875 -140.484375 C 86.972656 -133.335938 87.320312 -122.148438 83.71875 -106.921875 L 53.203125 -106.921875 L 55.46875 -117.21875 C 55.925781 -119.1875 55.75 -120.753906 54.9375 -121.921875 C 54.125 -123.085938 52.726562 -123.671875 50.75 -123.671875 C 48.425781 -123.671875 46.507812 -123.03125 45 -121.75 C 43.488281 -120.46875 42.5 -118.722656 42.03125 -116.515625 C 40.863281 -111.628906 42.492188 -106.570312 46.921875 -101.34375 L 60.515625 -84.59375 C 63.660156 -80.644531 66.160156 -76.894531 68.015625 -73.34375 C 69.878906 -69.800781 71.070312 -65.613281 71.59375 -60.78125 C 72.113281 -55.957031 71.617188 -50.234375 70.109375 -43.609375 C 66.617188 -28.835938 61.296875 -17.644531 54.140625 -10.03125 C 46.992188 -2.414062 37.203125 1.390625 24.765625 1.390625 Z M 24.765625 1.390625 "/></g></g></g><g fill="#38b6ff" fill-opacity="1"><g transform="translate(187.562624, 178.697256)"><g><path d="M 24.0625 -149.828125 L 65.40625 -149.828125 C 76.101562 -149.828125 83.457031 -146.859375 87.46875 -140.921875 C 91.476562 -134.992188 92.207031 -126.21875 89.65625 -114.59375 L 73.78125 -44.484375 C 70.40625 -29.710938 65.257812 -18.601562 58.34375 -11.15625 C 51.425781 -3.71875 41.921875 0 29.828125 0 L -10.46875 0 Z M 31.046875 -26.515625 C 36.515625 -26.515625 39.882812 -29.1875 41.15625 -34.53125 L 58.953125 -111.796875 C 59.765625 -115.171875 60.082031 -117.703125 59.90625 -119.390625 C 59.738281 -121.078125 59.039062 -122.210938 57.8125 -122.796875 C 56.59375 -123.378906 54.53125 -123.671875 51.625 -123.671875 L 48.3125 -123.671875 L 25.8125 -26.515625 Z M 31.046875 -26.515625 "/></g></g></g><g fill="#000000" fill-opacity="1"><g transform="translate(273.536121, 178.697256)"><g><path d="M -14.484375 0 L 34.53125 -149.828125 L 85.296875 -149.828125 L 65.0625 0 L 36.625 0 L 40.109375 -24.25 L 21.96875 -24.25 L 14.65625 0 Z M 29.828125 -48.140625 L 43.421875 -48.140625 L 54.25 -124.359375 L 52.84375 -124.359375 Z M 29.828125 -48.140625 "/></g></g></g><g fill="#000000" fill-opacity="1"><g transform="translate(358.125635, 178.697256)"><g><path d="M -10.46875 0 L 24.0625 -149.828125 L 84.0625 -149.828125 L 77.4375 -120.875 L 47.96875 -120.875 L 41.15625 -91.75 L 69.421875 -91.75 L 62.96875 -63.484375 L 34.703125 -63.484375 L 26.6875 -29.125 L 58.078125 -29.125 L 51.453125 0 Z M -10.46875 0 "/></g></g></g></svg>